<?xml version="1.0" encoding="UTF-8" standalone="no"?><!DOCTYPE svg PUBLIC "-//W3C//DTD SVG 1.1//EN" "http://www.w3.org/Graphics/SVG/1.1/DTD/svg11.dtd"><svg width="100%" height="100%" viewBox="0 0 360 360" version="1.1" xmlns="http://www.w3.org/2000/svg" xmlns:xlink="http://www.w3.org/1999/xlink" xml:space="preserve" xmlns:serif="http://www.serif.com/" style="fill-rule:evenodd;clip-rule:evenodd;stroke-linejoin:round;stroke-miterlimit:2;"><rect id="Artboard1" x="0" y="0" width="360" height="360" style="fill:none;"/><g id="Artboard11" serif:id="Artboard1"><g transform="matrix(-0.21886,0,0,-0.21886,398.862,303.897)"><path d="M682.96,763.96L1130.87,1126.97C1194.75,1178.39 1288.22,1169.04 1339.64,1105.16C1391.05,1041.29 1380.93,947.8 1317.05,896.39L869.15,534.16C823.19,496.77 798.26,442.24 796.71,387.71L661.17,555.2L660.38,555.98C608.97,619.07 619.1,712.56 682.97,763.97L682.96,763.96Z" style="fill:rgb(242,151,22);"/></g><g transform="matrix(-0.21886,0,0,-0.21886,398.862,593.899)"><path d="M1110.61,1560.86C1173.7,1612.28 1267.18,1602.15 1318.59,1538.28C1370.01,1475.18 1360.66,1381.7 1296.78,1330.29C1232.9,1278.88 1139.43,1288.22 1088.01,1352.1C1036.6,1415.98 1046.72,1509.45 1110.6,1560.87L1110.61,1560.86Z" style="fill:rgb(255,222,50);"/></g><g transform="matrix(-0.21886,0,0,-0.21886,398.862,459.384)"><path d="M1130.87,1395.72C1194.75,1447.92 1287.44,1437.79 1338.86,1373.91C1391.05,1310.81 1380.92,1217.33 1317.05,1165.92L1084.92,977.4C1038.18,940.01 1014.03,884.7 1014.81,828.62L876.94,999.22L876.15,999.22C824.74,1063.1 834.87,1156.58 897.97,1207.99L898.75,1207.99L1130.88,1395.72L1130.87,1395.72Z" style="fill:rgb(242,151,22);"/></g></g></svg>