<svg width="40" height="40" viewBox="0 0 200 200" fill="none" xmlns="http://www.w3.org/2000/svg">
  <path d="M40 80C40 71.1634 47.1634 64 56 64H144C152.837 64 160 71.1634 160 80V120C160 128.837 152.837 136 144 136H56C47.1634 136 40 128.837 40 120V80Z" fill="#f29716"/>
  <path d="M60 100C60 91.1634 67.1634 84 76 84H124C132.837 84 140 91.1634 140 100V140C140 148.837 132.837 156 124 156H76C67.1634 156 60 148.837 60 140V100Z" fill="#f29716"/>
  <circle cx="100" cy="170" r="16" fill="#ffde32"/>
</svg>